<svg width="24" height="24" viewBox="0 0 24 24" fill="none" xmlns="http://www.w3.org/2000/svg">
<path fill-rule="evenodd" clip-rule="evenodd" d="M16.7628 6.5C15.7803 6.5 14.8725 5.97585 14.3812 5.125C13.3227 3.29166 10.6765 3.29167 9.61807 5.12501C9.12683 5.97585 8.21898 6.5 7.23651 6.5C5.11958 6.5 3.79649 8.79165 4.85496 10.625C5.3462 11.4758 5.34619 12.5241 4.85496 13.375C3.79648 15.2083 5.11958 17.5 7.23654 17.5C8.21902 17.5 9.12687 18.0241 9.61811 18.875C10.6766 20.7083 13.3228 20.7083 14.3813 18.875C14.8725 18.0241 15.7803 17.5 16.7628 17.5C18.8798 17.5 20.2028 15.2083 19.1444 13.375C18.6531 12.5242 18.6531 11.4759 19.1444 10.625C20.2029 8.79169 18.8798 6.5 16.7628 6.5ZM10.1277 12.7039C10.0353 12.458 9.99217 12.1964 10.0008 11.9339C10.0095 11.6714 10.0698 11.4132 10.1783 11.174C10.2868 10.9348 10.4413 10.7193 10.6331 10.5398C10.8248 10.3603 11.0501 10.2204 11.2959 10.1279C11.5417 10.0355 11.8034 9.99241 12.0659 10.0011C12.3284 10.0098 12.5866 10.0701 12.8258 10.1786C13.065 10.287 13.2805 10.4416 13.46 10.6333C13.6394 10.8251 13.7794 11.0503 13.8718 11.2961C13.9642 11.542 14.0073 11.8036 13.9987 12.0661C13.99 12.3286 13.9297 12.5868 13.8212 12.826C13.7127 13.0652 13.5582 13.2807 13.3664 13.4602C13.1747 13.6397 12.9495 13.7796 12.7036 13.8721C12.4578 13.9645 12.1961 14.0076 11.9336 13.9989C11.6711 13.9902 11.4129 13.9299 11.1737 13.8214C10.9345 13.713 10.719 13.5584 10.5396 13.3667C10.3601 13.1749 10.2201 12.9497 10.1277 12.7039Z" fill="#374151"/>
</svg>
