<svg width="24" height="25" viewBox="0 0 24 25" fill="none" xmlns="http://www.w3.org/2000/svg">
<path d="M4 8.00979C4 6.31273 4 5.46421 4.52721 4.937C5.05442 4.40979 5.90294 4.40979 7.6 4.40979C9.29706 4.40979 10.1456 4.40979 10.6728 4.937C11.2 5.46421 11.2 6.31273 11.2 8.00979C11.2 9.70685 11.2 10.5554 10.6728 11.0826C10.1456 11.6098 9.29706 11.6098 7.6 11.6098C5.90294 11.6098 5.05442 11.6098 4.52721 11.0826C4 10.5554 4 9.70685 4 8.00979Z" fill="#374151"/>
<path d="M12.7998 16.8098C12.7998 15.1127 12.7998 14.2642 13.327 13.737C13.8542 13.2098 14.7027 13.2098 16.3998 13.2098C18.0969 13.2098 18.9454 13.2098 19.4726 13.737C19.9998 14.2642 19.9998 15.1127 19.9998 16.8098C19.9998 18.5068 19.9998 19.3554 19.4726 19.8826C18.9454 20.4098 18.0969 20.4098 16.3998 20.4098C14.7027 20.4098 13.8542 20.4098 13.327 19.8826C12.7998 19.3554 12.7998 18.5068 12.7998 16.8098Z" fill="#374151"/>
<path d="M4 16.8098C4 15.1127 4 14.2642 4.52721 13.737C5.05442 13.2098 5.90294 13.2098 7.6 13.2098C9.29706 13.2098 10.1456 13.2098 10.6728 13.737C11.2 14.2642 11.2 15.1127 11.2 16.8098C11.2 18.5068 11.2 19.3554 10.6728 19.8826C10.1456 20.4098 9.29706 20.4098 7.6 20.4098C5.90294 20.4098 5.05442 20.4098 4.52721 19.8826C4 19.3554 4 18.5068 4 16.8098Z" fill="#374151"/>
<path d="M12.7998 8.00979C12.7998 6.31273 12.7998 5.46421 13.327 4.937C13.8542 4.40979 14.7027 4.40979 16.3998 4.40979C18.0969 4.40979 18.9454 4.40979 19.4726 4.937C19.9998 5.46421 19.9998 6.31273 19.9998 8.00979C19.9998 9.70685 19.9998 10.5554 19.4726 11.0826C18.9454 11.6098 18.0969 11.6098 16.3998 11.6098C14.7027 11.6098 13.8542 11.6098 13.327 11.0826C12.7998 10.5554 12.7998 9.70685 12.7998 8.00979Z" fill="#374151"/>
</svg>
