<svg width="24" height="25" viewBox="0 0 24 25" fill="none" xmlns="http://www.w3.org/2000/svg">
<path fill-rule="evenodd" clip-rule="evenodd" d="M10.3915 5.17128C11.3376 4.43542 12.6624 4.43542 13.6085 5.17128L18.4885 8.96684C19.1267 9.46321 19.5 10.2264 19.5 11.0349V17.0004C19.5 18.4473 18.327 19.6204 16.88 19.6204H7.12C5.67301 19.6204 4.5 18.4473 4.5 17.0004V11.0349C4.5 10.2264 4.87328 9.46321 5.51147 8.96684L10.3915 5.17128ZM12 16.6204C11.3704 16.6204 10.7547 16.4341 10.2309 16.0849C9.70714 15.7357 9.29862 15.2392 9.05732 14.6579C8.8985 14.2754 9.07988 13.8365 9.46243 13.6777C9.84499 13.5189 10.2839 13.7002 10.4427 14.0828C10.57 14.3896 10.7858 14.652 11.063 14.8368C11.3402 15.0216 11.6663 15.1204 12 15.1204C12.3337 15.1204 12.6598 15.0216 12.937 14.8368C13.2142 14.652 13.43 14.3896 13.5573 14.0828C13.7161 13.7002 14.155 13.5189 14.5376 13.6777C14.9201 13.8365 15.1015 14.2754 14.9427 14.6579C14.7014 15.2392 14.2929 15.7357 13.7691 16.0849C13.2453 16.4341 12.6296 16.6204 12 16.6204Z" fill="#374251"/>
</svg>
