<svg width="24" height="24" viewBox="0 0 24 24" fill="none" xmlns="http://www.w3.org/2000/svg">
<path d="M9.375 12.5833C8.85582 12.5833 8.34831 12.4294 7.91663 12.1409C7.48495 11.8525 7.1485 11.4425 6.94982 10.9629C6.75114 10.4832 6.69915 9.95542 6.80044 9.44622C6.90172 8.93702 7.15173 8.46929 7.51884 8.10218C7.88596 7.73507 8.35369 7.48506 8.86289 7.38377C9.37209 7.28249 9.89989 7.33447 10.3795 7.53315C10.8592 7.73183 11.2692 8.06828 11.5576 8.49996C11.846 8.93164 12 9.43916 12 9.95833C11.9992 10.6543 11.7224 11.3215 11.2303 11.8136C10.7382 12.3058 10.071 12.5826 9.375 12.5833ZM13.1667 19H5.58333C5.42862 19 5.28025 18.9385 5.17085 18.8291C5.06146 18.7198 5 18.5714 5 18.4167V18.125C5 16.9647 5.46094 15.8519 6.28141 15.0314C7.10188 14.2109 8.21468 13.75 9.375 13.75C10.5353 13.75 11.6481 14.2109 12.4686 15.0314C13.2891 15.8519 13.75 16.9647 13.75 18.125V18.4167C13.75 18.5714 13.6885 18.7198 13.5791 18.8291C13.4697 18.9385 13.3214 19 13.1667 19ZM15.2083 10.25C14.6892 10.25 14.1816 10.096 13.75 9.80761C13.3183 9.51917 12.9818 9.1092 12.7831 8.62954C12.5845 8.14989 12.5325 7.62209 12.6338 7.11289C12.7351 6.60369 12.9851 6.13596 13.3522 5.76885C13.7193 5.40173 14.187 5.15173 14.6962 5.05044C15.2054 4.94915 15.7332 5.00114 16.2129 5.19982C16.6925 5.3985 17.1025 5.73495 17.3909 6.16663C17.6794 6.59831 17.8333 7.10583 17.8333 7.625C17.8326 8.32096 17.5558 8.98819 17.0636 9.4803C16.5715 9.97242 15.9043 10.2492 15.2083 10.25ZM14.3794 11.4289C13.8361 11.5018 13.3137 11.6861 12.845 11.9703C12.3762 12.2544 11.9712 12.6324 11.6553 13.0803C12.9624 13.674 13.9895 14.75 14.5217 16.0833H18.4167C18.5714 16.0833 18.7197 16.0219 18.8291 15.9125C18.9385 15.8031 19 15.6547 19 15.5V15.4778C18.9994 14.8964 18.8748 14.3217 18.6344 13.7923C18.3941 13.2628 18.0435 12.7907 17.6062 12.4075C17.1689 12.0243 16.6548 11.7388 16.0984 11.57C15.542 11.4013 14.9559 11.3532 14.3794 11.4289Z" fill="#374151"/>
</svg>
