<svg width="24" height="24" viewBox="0 0 24 24" fill="none" xmlns="http://www.w3.org/2000/svg">
<path fill-rule="evenodd" clip-rule="evenodd" d="M4 12C4 7.58172 7.58172 4 12 4C16.4183 4 20 7.58172 20 12C20 16.4183 16.4183 20 12 20C7.58172 20 4 16.4183 4 12ZM12.75 9C12.75 9.41421 12.4142 9.75 12 9.75C11.5858 9.75 11.25 9.41421 11.25 9C11.25 8.58579 11.5858 8.25 12 8.25C12.4142 8.25 12.75 8.58579 12.75 9ZM12 10.76C12.4142 10.76 12.75 11.0958 12.75 11.51V15.01C12.75 15.4242 12.4142 15.76 12 15.76C11.5858 15.76 11.25 15.4242 11.25 15.01V11.51C11.25 11.0958 11.5858 10.76 12 10.76Z" fill="#374151"/>
</svg>
