<svg width="24" height="24" viewBox="0 0 24 24" fill="none" xmlns="http://www.w3.org/2000/svg">
<path d="M16.5 5.68421L15.3886 4.04505C15.1672 3.72098 14.8838 3.45848 14.56 3.27742C14.2362 3.09636 13.8805 3.00149 13.5197 3H10.4803C10.1195 3.00149 9.76376 3.09636 9.43996 3.27742C9.11616 3.45848 8.83283 3.72098 8.61143 4.04505L7.5 5.68421H16.5Z" fill="#374151"/>
<path d="M12 15.5263C13.4912 15.5263 14.7 14.3246 14.7 12.8421C14.7 11.3597 13.4912 10.1579 12 10.1579C10.5088 10.1579 9.3 11.3597 9.3 12.8421C9.3 14.3246 10.5088 15.5263 12 15.5263Z" fill="#374151"/>
<path d="M17.25 6.57895H6.75C5.7558 6.58007 4.80267 6.95253 4.09966 7.61464C3.39666 8.27675 3.00119 9.17444 3 10.1108V16.4681C3.00119 17.4045 3.39666 18.3022 4.09966 18.9643C4.80267 19.6264 5.7558 19.9989 6.75 20H17.25C18.2442 19.9989 19.1973 19.6264 19.9003 18.9643C20.6033 18.3022 20.9988 17.4045 21 16.4681V10.1108C20.9988 9.17444 20.6033 8.27675 19.9003 7.61464C19.1973 6.95253 18.2442 6.58007 17.25 6.57895ZM12 17.1745C11.11 17.1745 10.24 16.9259 9.49993 16.4602C8.75991 15.9945 8.18314 15.3326 7.84254 14.5582C7.50195 13.7838 7.41283 12.9316 7.58647 12.1095C7.7601 11.2873 8.18868 10.5321 8.81802 9.93941C9.44736 9.34668 10.2492 8.94303 11.1221 8.7795C11.995 8.61596 12.8998 8.6999 13.7221 9.02068C14.5443 9.34146 15.2471 9.88468 15.7416 10.5817C16.2361 11.2786 16.5 12.098 16.5 12.9363C16.4988 14.06 16.0243 15.1373 15.1807 15.9319C14.337 16.7265 13.1931 17.1734 12 17.1745Z" fill="#374151"/>
</svg>
