<svg width="24" height="24" viewBox="0 0 24 24" fill="none" xmlns="http://www.w3.org/2000/svg">
<path d="M5.24274 5.24991L11.9941 3L18.7455 5.24991L12.0001 7.50056L5.24274 5.24166V5.24991ZM4.49259 6.74984L3.21733 8.87526C2.71698 9.70922 3.11756 10.7914 4.04025 11.0989L7.85178 12.3694C8.51866 12.5914 9.25081 12.3206 9.61239 11.7184L11.244 9.0005L4.49259 6.74984ZM12.7443 8.99975L14.3759 11.7176C14.7374 12.3206 15.4696 12.5914 16.1365 12.3686L19.9758 11.0892C20.8842 10.7862 21.2788 9.72047 20.7859 8.89925L19.4957 6.74984L12.7443 8.99975ZM10.8989 12.4901C10.3423 13.4171 9.36559 13.9488 8.33713 13.9488C8.01831 13.9488 7.69499 13.8985 7.37693 13.7921L4.49259 12.8313V18.7501L11.244 21V11.9149L10.8989 12.4894V12.4901ZM16.6113 13.7921C16.2933 13.8985 15.9699 13.9488 15.6511 13.9488C14.6227 13.9488 13.646 13.4178 13.0893 12.4901L12.7443 11.9156V21L19.4957 18.7501V12.8313L16.6113 13.7921Z" fill="#374151"/>
</svg>
