<svg width="24" height="25" viewBox="0 0 24 25" fill="none" xmlns="http://www.w3.org/2000/svg">
<path d="M18.8178 11.5978L19.7305 10.8344C19.9135 10.6814 20.0143 10.4399 19.9983 10.1909C19.9823 9.94194 19.853 9.71695 19.6512 9.59246L10.1202 3.67311C9.46635 3.27863 8.71088 3.18414 7.9895 3.40912C7.26951 3.63336 6.67543 4.14782 6.31788 4.85803L5.73075 6.02195C5.01146 7.44685 5.49076 9.25948 6.7923 10.0582L10.7282 12.5323L9.88721 15.2516C9.60269 16.1718 8.80688 16.7897 7.90741 16.7897H5.39128V14.5399C5.39128 14.1259 5.07963 13.7899 4.69564 13.7899C4.31165 13.7899 4 14.1259 4 14.5399V20.5395C4 20.9535 4.31165 21.2894 4.69564 21.2894C5.07963 21.2894 5.39128 20.9535 5.39128 20.5395V18.2896H7.90741C9.40652 18.2896 10.7331 17.2592 11.2068 15.7263L11.956 13.3047L13.9581 14.5631C14.3838 14.8241 14.8541 14.9569 15.3299 14.9569C15.5852 14.9569 15.8426 14.9186 16.0958 14.8414C16.3441 14.7649 16.5779 14.6546 16.7921 14.5136L17.8996 15.1758C18.3107 15.4218 18.829 15.2591 19.0544 14.8144L19.6415 13.6542C19.8648 13.2132 19.7159 12.6613 19.3083 12.4175L18.5173 11.9451C18.5994 11.8131 18.7003 11.6976 18.8171 11.5993L18.8178 11.5978Z" fill="#374151"/>
</svg>
