<svg width="24" height="24" viewBox="0 0 24 24" fill="none" xmlns="http://www.w3.org/2000/svg">
<path fill-rule="evenodd" clip-rule="evenodd" d="M10.5779 4.7329C11.4524 4.20459 12.5476 4.20459 13.4221 4.7329L17.4221 7.14957C18.2463 7.64754 18.75 8.54036 18.75 9.50334V14.4966C18.75 15.4596 18.2463 16.3524 17.4221 16.8504L13.4221 19.2671C12.5476 19.7954 11.4524 19.7954 10.5779 19.2671L6.57793 16.8504C5.75371 16.3524 5.25 15.4596 5.25 14.4966V9.50334C5.25 8.54036 5.75371 7.64754 6.57793 7.14957L10.5779 4.7329ZM10.1279 12.7039C10.0355 12.458 9.99241 12.1964 10.0011 11.9339C10.0098 11.6714 10.0701 11.4132 10.1786 11.174C10.287 10.9348 10.4416 10.7193 10.6333 10.5398C10.8251 10.3603 11.0503 10.2204 11.2961 10.1279C11.542 10.0355 11.8036 9.99241 12.0661 10.0011C12.3286 10.0098 12.5868 10.0701 12.826 10.1786C13.0652 10.287 13.2807 10.4416 13.4602 10.6333C13.6397 10.8251 13.7796 11.0503 13.8721 11.2961C13.9645 11.542 14.0076 11.8036 13.9989 12.0661C13.9902 12.3286 13.9299 12.5868 13.8214 12.826C13.713 13.0652 13.5584 13.2807 13.3667 13.4602C13.1749 13.6397 12.9497 13.7796 12.7039 13.8721C12.458 13.9645 12.1964 14.0076 11.9339 13.9989C11.6714 13.9902 11.4132 13.9299 11.174 13.8214C10.9348 13.713 10.7193 13.5584 10.5398 13.3667C10.3603 13.1749 10.2204 12.9497 10.1279 12.7039Z" fill="#374151"/>
</svg>
