<svg width="24" height="25" viewBox="0 0 24 25" fill="none" xmlns="http://www.w3.org/2000/svg">
<path d="M12.0003 7.28943C8.74242 7.28943 6.24075 9.13683 4.14425 11.6881C3.85683 12.0378 3.85683 12.541 4.14425 12.8908C6.24075 15.442 8.74242 17.2894 12.0003 17.2894C15.2582 17.2894 17.7599 15.442 19.8564 12.8908C20.1438 12.541 20.1438 12.0378 19.8564 11.6881C17.7599 9.13683 15.2582 7.28943 12.0003 7.28943Z" stroke="#374151" stroke-width="1.4" stroke-linecap="round" stroke-linejoin="round"/>
<path d="M14.0837 12.2894C14.0837 13.44 13.1509 14.3728 12.0003 14.3728C10.8497 14.3728 9.91699 13.44 9.91699 12.2894C9.91699 11.1389 10.8497 10.2061 12.0003 10.2061C13.1509 10.2061 14.0837 11.1389 14.0837 12.2894Z" stroke="#374151" stroke-width="1.4" stroke-linecap="round" stroke-linejoin="round"/>
</svg>
