<svg width="24" height="25" viewBox="0 0 24 25" fill="none" xmlns="http://www.w3.org/2000/svg">
<path d="M5.25 17.1694V11.204C5.25 10.627 5.51642 10.0822 5.97193 9.72793L10.8519 5.93237C11.5272 5.40716 12.4728 5.40716 13.1481 5.93237L18.0281 9.72793C18.4836 10.0822 18.75 10.627 18.75 11.204V17.1694C18.75 18.2022 17.9128 19.0394 16.88 19.0394H14.75C14.4739 19.0394 14.25 18.8156 14.25 18.5394V15.9381C14.25 15.6749 14.207 15.4087 14.0677 15.1854C13.8854 14.8933 13.6423 14.6418 13.353 14.4489C12.9525 14.1819 12.4817 14.0394 12 14.0394C11.5183 14.0394 11.0475 14.1819 10.647 14.4489C10.3577 14.6418 10.1146 14.8933 9.93234 15.1854C9.79305 15.4087 9.75 15.6749 9.75 15.9381V18.5394C9.75 18.8156 9.52614 19.0394 9.25 19.0394H7.12C6.08723 19.0394 5.25 18.2022 5.25 17.1694Z" stroke="#374151" stroke-width="1.5" stroke-linecap="round" stroke-linejoin="round"/>
</svg>
