<svg width="24" height="24" viewBox="0 0 24 24" fill="none" xmlns="http://www.w3.org/2000/svg">
<path d="M6.66699 18.0498C6.47693 18.0498 6.29455 17.9742 6.16016 17.8398C6.02576 17.7054 5.9502 17.5231 5.9502 17.333L5.9502 8.66699C5.9502 8.47692 6.02576 8.29455 6.16016 8.16016C6.29454 8.02585 6.477 7.95019 6.66699 7.95019C6.85693 7.95029 7.03951 8.02584 7.17383 8.16016C7.30811 8.29453 7.38281 8.47702 7.38281 8.66699L7.38281 15.6035L16.8262 6.16016C16.9606 6.0257 17.1429 5.9502 17.333 5.9502C17.5232 5.9502 17.7054 6.02569 17.8398 6.16016C17.9743 6.29462 18.0498 6.47684 18.0498 6.66699C18.0498 6.85715 17.9743 7.03936 17.8398 7.17383L8.39648 16.6172L15.333 16.6172C15.523 16.6172 15.7055 16.6919 15.8398 16.8262C15.9742 16.9605 16.0497 17.1431 16.0498 17.333C16.0498 17.523 15.9741 17.7055 15.8398 17.8398C15.7054 17.9742 15.5231 18.0498 15.333 18.0498L6.66699 18.0498Z" fill="#374151" stroke="#374151" stroke-width="0.1"/>
</svg>
