<svg width="24" height="24" viewBox="0 0 24 24" fill="none" xmlns="http://www.w3.org/2000/svg">
<path d="M17.333 5.9502C17.5231 5.9502 17.7054 6.02576 17.8398 6.16016C17.9742 6.29455 18.0498 6.47693 18.0498 6.66699V15.333C18.0498 15.5231 17.9742 15.7054 17.8398 15.8398C17.7055 15.9741 17.523 16.0498 17.333 16.0498C17.1431 16.0497 16.9605 15.9742 16.8262 15.8398C16.6919 15.7055 16.6172 15.523 16.6172 15.333V8.39648L7.17383 17.8398C7.03936 17.9743 6.85714 18.0498 6.66699 18.0498C6.47684 18.0498 6.29462 17.9743 6.16016 17.8398C6.0257 17.7054 5.9502 17.5232 5.9502 17.333C5.9502 17.1429 6.0257 16.9606 6.16016 16.8262L15.6035 7.38281H8.66699C8.47702 7.38281 8.29454 7.30811 8.16016 7.17383C8.02584 7.03951 7.95029 6.85693 7.9502 6.66699C7.9502 6.477 8.02586 6.29454 8.16016 6.16016C8.29455 6.02576 8.47693 5.9502 8.66699 5.9502H17.333Z" fill="#374151" stroke="#374151" stroke-width="0.1"/>
</svg>
