<svg width="24" height="24" viewBox="0 0 24 24" fill="none" xmlns="http://www.w3.org/2000/svg">
<path d="M4 11.2222C4 8.28904 4 6.82245 4.93726 5.91122C5.87452 5 7.38301 5 10.4 5H13.6C16.617 5 18.1255 5 19.0627 5.91122C20 6.82245 20 8.28904 20 11.2222V12.7778C20 15.711 20 17.1776 19.0627 18.0888C18.1255 19 16.617 19 13.6 19H10.4C7.38301 19 5.87452 19 4.93726 18.0888C4 17.1776 4 15.711 4 12.7778V11.2222Z" stroke="#374251" stroke-width="1.5"/>
<path d="M14 19L14 5" stroke="#374251" stroke-width="1.5" stroke-linecap="round"/>
</svg>
