<svg width="24" height="25" viewBox="0 0 24 25" fill="none" xmlns="http://www.w3.org/2000/svg">
<path d="M10.2676 5.78943C11.0374 4.45613 12.9616 4.4562 13.7314 5.78943C14.3566 6.87231 15.5123 7.53939 16.7627 7.53943C18.3022 7.53943 19.2648 9.2061 18.4951 10.5394C17.8699 11.6223 17.8699 12.9565 18.4951 14.0394C19.2648 15.3727 18.3022 17.0394 16.7627 17.0394C15.5123 17.0395 14.3566 17.7066 13.7314 18.7894C12.9616 20.1226 11.0374 20.1227 10.2676 18.7894C9.64236 17.7065 8.48675 17.0394 7.23633 17.0394C5.69684 17.0393 4.73511 15.3727 5.50488 14.0394C6.12997 12.9566 6.12995 11.6222 5.50488 10.5394C4.73512 9.20616 5.69685 7.53956 7.23633 7.53943C8.48675 7.53943 9.64237 6.87233 10.2676 5.78943Z" stroke="#374151" stroke-width="1.5"/>
<path d="M10.5008 12.2398C10.4943 12.4367 10.5266 12.6329 10.596 12.8173C10.6653 13.0017 10.7702 13.1706 10.9048 13.3144C11.0395 13.4583 11.2011 13.5742 11.3805 13.6555C11.5599 13.7369 11.7535 13.7821 11.9504 13.7886C12.1473 13.7951 12.3435 13.7628 12.5279 13.6935C12.7123 13.6241 12.8812 13.5192 13.025 13.3846C13.1688 13.25 13.2847 13.0884 13.3661 12.909C13.4474 12.7296 13.4927 12.5359 13.4992 12.339C13.5057 12.1422 13.4734 11.9459 13.404 11.7615C13.3347 11.5772 13.2298 11.4082 13.0952 11.2644C12.9605 11.1206 12.7989 11.0047 12.6195 10.9233C12.4401 10.842 12.2465 10.7968 12.0496 10.7902C11.8527 10.7837 11.6565 10.8161 11.4721 10.8854C11.2877 10.9547 11.1188 11.0597 10.975 11.1943C10.8312 11.3289 10.7153 11.4905 10.6339 11.6699C10.5526 11.8493 10.5073 12.043 10.5008 12.2398Z" stroke="#374151" stroke-width="1.5" stroke-linecap="round" stroke-linejoin="round"/>
</svg>
