<svg width="24" height="25" viewBox="0 0 24 25" fill="none" xmlns="http://www.w3.org/2000/svg">
<path d="M15.5 4.78943C14.9477 4.78943 14.5 5.23714 14.5 5.78943V18.7894C14.5 19.3417 14.9477 19.7894 15.5 19.7894H17C17.5523 19.7894 18 19.3417 18 18.7894V5.78943C18 5.23714 17.5523 4.78943 17 4.78943H15.5Z" fill="#374151"/>
<path d="M9.5 10.2894C9.5 9.73714 9.94772 9.28943 10.5 9.28943H12C12.5523 9.28943 13 9.73714 13 10.2894V18.7894C13 19.3417 12.5523 19.7894 12 19.7894H10.5C9.94771 19.7894 9.5 19.3417 9.5 18.7894V10.2894Z" fill="#374151"/>
<path d="M4.5 14.7894C4.5 14.2371 4.94772 13.7894 5.5 13.7894H7C7.55228 13.7894 8 14.2371 8 14.7894V18.7894C8 19.3417 7.55228 19.7894 7 19.7894H5.5C4.94772 19.7894 4.5 19.3417 4.5 18.7894V14.7894Z" fill="#374151"/>
</svg>
