<svg width="24" height="25" viewBox="0 0 24 25" fill="none" xmlns="http://www.w3.org/2000/svg">
<path d="M12 15.3265C10.39 15.3265 9.08333 14.0198 9.08333 12.4098C9.08333 10.7998 10.39 9.49312 12 9.49312C13.61 9.49312 14.9167 10.7998 14.9167 12.4098C14.9167 14.0198 13.61 15.3265 12 15.3265ZM12.5833 7.74312V5.99312C12.5833 5.67229 12.3208 5.40979 12 5.40979C11.6792 5.40979 11.4167 5.67229 11.4167 5.99312V7.74312C11.4167 8.06396 11.6792 8.32646 12 8.32646C12.3208 8.32646 12.5833 8.06396 12.5833 7.74312ZM12.5833 18.8265V17.0765C12.5833 16.7556 12.3208 16.4931 12 16.4931C11.6792 16.4931 11.4167 16.7556 11.4167 17.0765V18.8265C11.4167 19.1473 11.6792 19.4098 12 19.4098C12.3208 19.4098 12.5833 19.1473 12.5833 18.8265ZM7.91667 12.4098C7.91667 12.089 7.65417 11.8265 7.33333 11.8265H5.58333C5.2625 11.8265 5 12.089 5 12.4098C5 12.7306 5.2625 12.9931 5.58333 12.9931H7.33333C7.65417 12.9931 7.91667 12.7306 7.91667 12.4098ZM19 12.4098C19 12.089 18.7375 11.8265 18.4167 11.8265H16.6667C16.3458 11.8265 16.0833 12.089 16.0833 12.4098C16.0833 12.7306 16.3458 12.9931 16.6667 12.9931H18.4167C18.7375 12.9931 19 12.7306 19 12.4098ZM8.91417 9.32396C9.14167 9.09646 9.14167 8.72896 8.91417 8.50146L7.7475 7.33479C7.52 7.10729 7.1525 7.10729 6.925 7.33479C6.6975 7.56229 6.6975 7.92979 6.925 8.15729L8.09167 9.32396C8.20833 9.44062 8.35417 9.49312 8.50583 9.49312C8.6575 9.49312 8.80333 9.43479 8.92 9.32396H8.91417ZM17.0808 17.4906C17.3083 17.2631 17.3083 16.8956 17.0808 16.6681L15.9142 15.5015C15.6867 15.274 15.3192 15.274 15.0917 15.5015C14.8642 15.729 14.8642 16.0965 15.0917 16.324L16.2583 17.4906C16.375 17.6073 16.5208 17.6598 16.6725 17.6598C16.8242 17.6598 16.97 17.6015 17.0867 17.4906H17.0808ZM7.7475 17.4906L8.91417 16.324C9.14167 16.0965 9.14167 15.729 8.91417 15.5015C8.68667 15.274 8.31917 15.274 8.09167 15.5015L6.925 16.6681C6.6975 16.8956 6.6975 17.2631 6.925 17.4906C7.04167 17.6073 7.1875 17.6598 7.33917 17.6598C7.49083 17.6598 7.63667 17.6015 7.75333 17.4906H7.7475ZM15.9142 9.32396L17.0808 8.15729C17.3083 7.92979 17.3083 7.56229 17.0808 7.33479C16.8533 7.10729 16.4858 7.10729 16.2583 7.33479L15.0917 8.50146C14.8642 8.72896 14.8642 9.09646 15.0917 9.32396C15.2083 9.44062 15.3542 9.49312 15.5058 9.49312C15.6575 9.49312 15.8033 9.43479 15.92 9.32396H15.9142Z" fill="#30A4FF"/>
</svg>
