<svg width="24" height="25" viewBox="0 0 24 25" fill="none" xmlns="http://www.w3.org/2000/svg">
<path d="M14.2566 10.9298C14.4631 11.1363 14.6269 11.3815 14.7387 11.6513C14.8504 11.9212 14.9079 12.2104 14.9079 12.5024C14.9079 12.7945 14.8504 13.0837 14.7386 13.3535C14.6269 13.6233 14.463 13.8685 14.2565 14.075C14.05 14.2815 13.8048 14.4453 13.535 14.5571C13.2652 14.6689 12.976 14.7264 12.6839 14.7264C12.3919 14.7264 12.1027 14.6688 11.8328 14.5571C11.563 14.4453 11.3178 14.2815 11.1113 14.075" stroke="#374151" stroke-width="1.5" stroke-linecap="round"/>
<path d="M11.4378 7.95813C8.17992 7.95813 5.67825 9.80553 3.58175 12.3568C3.29433 12.7065 3.2942 13.2096 3.58162 13.5593C4.15059 14.2517 4.7494 14.8923 5.38506 15.4581M7.88818 17.1538C8.96655 17.666 10.1424 17.9581 11.4378 17.9581C14.6957 17.9581 17.1974 16.1107 19.2939 13.5595C19.5813 13.2097 19.5814 12.7067 19.294 12.3569C18.1273 10.9371 16.8351 9.73526 15.3569 8.9485" stroke="#374151" stroke-width="1.4" stroke-linecap="round" stroke-linejoin="round"/>
<path d="M19.2253 4.39215L3.99377 20.3018" stroke="#374151" stroke-width="1.5" stroke-linecap="round" stroke-linejoin="round"/>
</svg>
