<svg width="687" height="269" viewBox="0 0 687 269" fill="none" xmlns="http://www.w3.org/2000/svg">
<g opacity="0.4">
<path d="M0 205.318V163.181L110.4 10.5684H172.323V162.827H206.646V205.318H172.323V258.431H122.431V205.318H0ZM122.431 61.2032L48.8307 162.827H122.431V61.2032Z" fill="#E1D2FF"/>
<path d="M480.33 205.318V163.181L590.73 10.5684H652.653V162.827H686.977V205.318H652.653V258.431H602.761V205.318H480.33ZM602.761 61.2032L529.161 162.827H602.761V61.2032Z" fill="#E1D2FF"/>
</g>
<g opacity="0.4">
<path d="M462.182 213.093L372.091 266.442C366.328 269.853 359.221 269.853 353.443 266.442L256.007 208.728C250.245 205.317 246.684 198.997 246.684 192.162V76.7776C246.684 69.9421 250.23 63.6371 256.007 60.2118L353.384 2.55761C359.147 -0.852537 366.254 -0.852537 372.032 2.55761L462.227 55.9681L395.881 95.253L313.03 46.1923V222.883L395.866 173.823L462.182 213.093Z" fill="#E1D2FF"/>
<path d="M395.864 168.522C414.185 168.522 429.037 153.288 429.037 134.496C429.037 115.705 414.185 100.471 395.864 100.471C377.543 100.471 362.691 115.705 362.691 134.496C362.691 153.288 377.543 168.522 395.864 168.522Z" fill="#E1D2FF"/>
</g>
</svg>
