<svg width="1440" height="638" viewBox="0 0 1440 638" fill="none" xmlns="http://www.w3.org/2000/svg">
<g filter="url(#filter0_f_4194_32596)">
<path d="M1633.87 191.057C1737.73 238.071 1797.67 293.5 1797.67 352.854C1797.67 522.884 1305.71 660.722 698.838 660.722C91.9666 660.722 -400 522.884 -400 352.854C-400 293.5 -340.051 238.071 -236.193 191.057C-246.937 211.858 -252.557 233.315 -252.557 255.25C-252.557 446.227 173.398 601.044 698.838 601.044C1224.28 601.044 1650.23 446.227 1650.23 255.25C1650.23 233.315 1644.61 211.858 1633.87 191.057Z" fill="#D782FF"/>
</g>
<g filter="url(#filter1_f_4194_32596)">
<path d="M1595.91 127.301C1722.98 176.29 1797.67 236.14 1797.67 300.759C1797.67 466.6 1305.71 601.042 698.838 601.042C91.9668 601.042 -400 466.6 -400 300.759C-400 236.14 -325.309 176.29 -198.233 127.301C-233.411 163.407 -252.557 202.267 -252.557 242.754C-252.557 433.731 173.398 588.548 698.838 588.548C1224.28 588.548 1650.23 433.731 1650.23 242.754C1650.23 202.267 1631.08 163.407 1595.91 127.301Z" fill="#D3C8FF"/>
</g>
<g filter="url(#filter2_f_4194_32596)">
<path d="M-198.231 1194.36C-325.308 1145.37 -399.999 1085.52 -399.999 1020.9C-399.999 855.06 91.967 720.618 698.838 720.618C1305.71 720.618 1797.68 855.06 1797.68 1020.9C1797.68 1085.52 1722.98 1145.37 1595.91 1194.36C1631.09 1158.25 1650.23 1119.39 1650.23 1078.91C1650.23 887.929 1224.28 733.112 698.838 733.112C173.398 733.112 -252.556 887.929 -252.556 1078.91C-252.556 1119.39 -233.409 1158.25 -198.231 1194.36Z" fill="#D3C8FF"/>
</g>
<g filter="url(#filter3_f_4194_32596)">
<path d="M-236.192 1130.6C-340.05 1083.59 -399.999 1028.16 -399.999 968.807C-399.999 798.776 91.9669 660.938 698.838 660.938C1305.71 660.938 1797.68 798.776 1797.68 968.807C1797.68 1028.16 1737.73 1083.59 1633.87 1130.6C1644.61 1109.8 1650.23 1088.34 1650.23 1066.41C1650.23 875.433 1224.28 720.616 698.838 720.616C173.398 720.616 -252.556 875.433 -252.556 1066.41C-252.556 1088.34 -246.936 1109.8 -236.192 1130.6Z" fill="#D782FF"/>
</g>
<g filter="url(#filter4_f_4194_32596)">
<path d="M-194.545 526.266C-1.37964 606.8 326.709 659.79 698.953 659.79C1071.2 659.79 1399.28 606.8 1592.45 526.266H1594.38V794.331C1401.47 713.344 1072.44 660.002 698.953 660.002C324.664 660.002 -4.9839 713.575 -197.717 794.855V526.266H-194.545Z" fill="#7383FD"/>
</g>
<defs>
<filter id="filter0_f_4194_32596" x="-516.2" y="74.8566" width="2430.08" height="702.066" filterUnits="userSpaceOnUse" color-interpolation-filters="sRGB">
<feFlood flood-opacity="0" result="BackgroundImageFix"/>
<feBlend mode="normal" in="SourceGraphic" in2="BackgroundImageFix" result="shape"/>
<feGaussianBlur stdDeviation="58.1" result="effect1_foregroundBlur_4194_32596"/>
</filter>
<filter id="filter1_f_4194_32596" x="-527.3" y="0.000778198" width="2452.28" height="728.342" filterUnits="userSpaceOnUse" color-interpolation-filters="sRGB">
<feFlood flood-opacity="0" result="BackgroundImageFix"/>
<feBlend mode="normal" in="SourceGraphic" in2="BackgroundImageFix" result="shape"/>
<feGaussianBlur stdDeviation="63.65" result="effect1_foregroundBlur_4194_32596"/>
</filter>
<filter id="filter2_f_4194_32596" x="-508.798" y="611.817" width="2415.27" height="691.342" filterUnits="userSpaceOnUse" color-interpolation-filters="sRGB">
<feFlood flood-opacity="0" result="BackgroundImageFix"/>
<feBlend mode="normal" in="SourceGraphic" in2="BackgroundImageFix" result="shape"/>
<feGaussianBlur stdDeviation="54.4" result="effect1_foregroundBlur_4194_32596"/>
</filter>
<filter id="filter3_f_4194_32596" x="-508.798" y="552.137" width="2415.27" height="687.266" filterUnits="userSpaceOnUse" color-interpolation-filters="sRGB">
<feFlood flood-opacity="0" result="BackgroundImageFix"/>
<feBlend mode="normal" in="SourceGraphic" in2="BackgroundImageFix" result="shape"/>
<feGaussianBlur stdDeviation="54.4" result="effect1_foregroundBlur_4194_32596"/>
</filter>
<filter id="filter4_f_4194_32596" x="-272.717" y="451.266" width="1942.09" height="418.59" filterUnits="userSpaceOnUse" color-interpolation-filters="sRGB">
<feFlood flood-opacity="0" result="BackgroundImageFix"/>
<feBlend mode="normal" in="SourceGraphic" in2="BackgroundImageFix" result="shape"/>
<feGaussianBlur stdDeviation="37.5" result="effect1_foregroundBlur_4194_32596"/>
</filter>
</defs>
</svg>
