<svg width="18" height="18" viewBox="0 0 18 18" fill="none" xmlns="http://www.w3.org/2000/svg">
<path d="M15.4492 9C15.4492 7.30172 15.4484 6.09581 15.3254 5.18115C15.2201 4.39766 15.0337 3.90568 14.7373 3.54346L14.604 3.39551C14.2286 3.02012 13.7136 2.79444 12.8184 2.67407C11.9037 2.55113 10.6978 2.55029 8.99951 2.55029C7.30123 2.55029 6.09532 2.55113 5.18066 2.67407C4.39718 2.77941 3.9052 2.96582 3.54297 3.26221L3.39502 3.39551C3.01962 3.77091 2.79395 4.28588 2.67358 5.18115C2.55065 6.09581 2.5498 7.30171 2.5498 9C2.5498 10.6983 2.55064 11.9042 2.67358 12.8188C2.79395 13.7141 3.01963 14.2291 3.39502 14.6045L3.54297 14.7378C3.9052 15.0342 4.39717 15.2206 5.18066 15.3259C6.09532 15.4489 7.30123 15.4497 8.99951 15.4497C10.6978 15.4497 11.9037 15.4489 12.8184 15.3259C13.7136 15.2056 14.2286 14.9799 14.604 14.6045L14.7373 14.4565C15.0337 14.0943 15.2201 13.6023 15.3254 12.8188C15.4484 11.9042 15.4492 10.6983 15.4492 9ZM16.7998 9C16.7998 10.6603 16.8007 11.9735 16.6628 12.999C16.5311 13.9787 16.2627 14.7841 15.6792 15.4314L15.5583 15.5588C14.8903 16.2268 14.0435 16.5228 12.9985 16.6633C11.973 16.8012 10.6598 16.8003 8.99951 16.8003C7.33922 16.8003 6.02604 16.8012 5.00049 16.6633C4.02086 16.5316 3.21542 16.2632 2.56812 15.6797L2.44067 15.5588C1.77267 14.8908 1.47668 14.044 1.33618 12.999C1.1983 11.9735 1.19922 10.6603 1.19922 9C1.19922 7.3397 1.1983 6.02653 1.33618 5.00098C1.47668 3.95605 1.77266 3.10918 2.44067 2.44116L2.56812 2.32031C3.21541 1.73683 4.02086 1.46839 5.00049 1.33667C6.02604 1.19879 7.33922 1.19971 8.99951 1.19971C10.6598 1.19971 11.973 1.19879 12.9985 1.33667C14.0435 1.47717 14.8903 1.77316 15.5583 2.44116L15.6792 2.5686C16.2627 3.2159 16.5311 4.02135 16.6628 5.00098C16.8007 6.02653 16.7998 7.3397 16.7998 9Z" fill="#DFDFDF"/>
</svg>
