<svg width="128" height="33" viewBox="0 0 128 33" fill="none" xmlns="http://www.w3.org/2000/svg">
<path d="M102.383 10.1421L100.254 19.5357C100.082 20.2952 99.9709 21.0485 99.9709 21.828H99.4807C99.4807 21.047 99.3833 20.289 99.1809 19.5357L96.6688 10.1421H94.2346L97.9444 23.3992H100.965L103.062 14.7743C103.286 13.8473 103.444 13.0847 103.444 12.1223H103.907C103.907 13.0847 104.063 13.8473 104.289 14.7743L106.386 23.3992H109.406L113.116 10.1421H110.682L108.17 19.5357C107.969 20.289 107.87 21.0454 107.87 21.828H107.38C107.38 21.0485 107.269 20.2952 107.097 19.5357L104.968 10.1421H102.386H102.383ZM67.3117 21.828H67.7644C67.7644 21.0439 68.0147 20.2444 68.313 19.5357L72.2775 10.1421H74.8286L69.1718 23.3992H65.9028L60.246 10.1421H62.7971L66.7616 19.5357C67.0614 20.2444 67.3102 21.0439 67.3102 21.828H67.3117ZM81.6006 23.4008V10.1437H92.5634V12.3022H83.8924V15.6906H91.7795V17.6416H83.8924V21.2392H92.9441V23.3992H81.5991L81.6006 23.4008ZM75.9828 10.1437H78.2745V23.4008H75.9828V10.1437ZM53.2762 17.4464C53.2762 18.1274 53.585 18.5072 53.9732 19.0176L57.3172 23.3992H60.3494L54.91 16.4609L60.183 10.1437H57.1223L53.9747 13.9057C53.531 14.4346 53.2777 14.9158 53.2777 15.6476H52.8115C52.8115 14.9142 52.5567 14.4346 52.1146 13.9057L48.9669 10.1437H45.9062L51.1793 16.4609L45.7398 23.3992H48.7721L52.1161 19.0176C52.5058 18.5072 52.813 18.1274 52.813 17.4464H53.2792H53.2762ZM37.8302 23.6268C33.2541 23.6268 30.2773 20.9255 30.2773 16.7714C30.2773 12.6174 33.2511 9.93457 37.8302 9.93457C41.9986 9.93457 44.842 11.9655 45.3846 15.3893H43.0523C42.5952 13.3338 40.6301 12.0946 37.8302 12.0946C34.6631 12.0946 32.5706 13.9457 32.5706 16.773C32.5706 19.6003 34.6646 21.4698 37.8302 21.4698C40.6256 21.4698 42.5967 20.206 43.0523 18.1551H45.3846C44.8465 21.6281 42.072 23.6283 37.8302 23.6283V23.6268Z" fill="white"/>
<path d="M25.8284 24.5629L16.6898 29.9746C16.1052 30.3205 15.3842 30.3205 14.7982 29.9746L4.91454 24.1201C4.32998 23.7742 3.96875 23.1331 3.96875 22.4397V10.7354C3.96875 10.042 4.32848 9.40247 4.91454 9.05502L14.7922 3.2067C15.3767 2.86079 16.0977 2.86079 16.6838 3.2067L25.8329 8.62454L19.103 12.6095L10.6987 7.63291V25.556L19.1015 20.5794L25.8284 24.5629Z" fill="#7E6ED4"/>
<path d="M19.1023 20.0426C20.9607 20.0426 22.4673 18.4973 22.4673 16.5911C22.4673 14.6849 20.9607 13.1396 19.1023 13.1396C17.2439 13.1396 15.7373 14.6849 15.7373 16.5911C15.7373 18.4973 17.2439 20.0426 19.1023 20.0426Z" fill="#7E6ED4"/>
</svg>
