<svg width="37" height="36" viewBox="0 0 37 36" fill="none" xmlns="http://www.w3.org/2000/svg">
<path d="M29.1847 25.3881L19.9105 30.7429C19.3168 31.0857 18.5849 31.0857 17.9913 30.7429L7.9594 24.9507C7.36576 24.6079 7 23.9741 7 23.2886V11.7068C7 11.0212 7.36576 10.3875 7.9594 10.0447L17.9842 4.25709C18.5779 3.9143 19.3094 3.9143 19.9034 4.25709L29.1882 9.61775L22.3578 13.5609L13.8296 8.63692V26.3705L22.3578 21.4465L29.1847 25.3877V25.3881Z" fill="#7E6ED4"/>
<path d="M22.3599 20.9146C24.2457 20.9146 25.7745 19.3859 25.7745 17.5C25.7745 15.6142 24.2457 14.0854 22.3599 14.0854C20.4741 14.0854 18.9453 15.6142 18.9453 17.5C18.9453 19.3859 20.4741 20.9146 22.3599 20.9146Z" fill="#7E6ED4"/>
</svg>
