<svg width="128" height="33" viewBox="0 0 128 33" fill="none" xmlns="http://www.w3.org/2000/svg">
<path d="M102.383 10.1418L100.254 19.5353C100.082 20.2948 99.9711 21.0481 99.9711 21.8276H99.481C99.481 21.0466 99.3835 20.2887 99.1812 19.5353L96.6691 10.1418H94.2349L97.9446 23.3989H100.965L103.062 14.774C103.287 13.8469 103.444 13.0844 103.444 12.1219H103.907C103.907 13.0844 104.063 13.8469 104.289 14.774L106.386 23.3989H109.407L113.116 10.1418H110.682L108.17 19.5353C107.969 20.2887 107.87 21.0451 107.87 21.8276H107.38C107.38 21.0481 107.269 20.2948 107.097 19.5353L104.968 10.1418H102.386H102.383ZM67.312 21.8276H67.7646C67.7646 21.0435 68.0149 20.2441 68.3132 19.5353L72.2778 10.1418H74.8289L69.1721 23.3989H65.903L60.2462 10.1418H62.7973L66.7619 19.5353C67.0617 20.2441 67.3105 21.0435 67.3105 21.8276H67.312ZM81.6008 23.4004V10.1433H92.5636V12.3018H83.8926V15.6903H91.7797V17.6412H83.8926V21.2388H92.9443V23.3989H81.5993L81.6008 23.4004ZM75.983 10.1433H78.2748V23.4004H75.983V10.1433ZM53.2764 17.446C53.2764 18.1271 53.5852 18.5068 53.9734 19.0172L57.3174 23.3989H60.3497L54.9102 16.4605L60.1833 10.1433H57.1226L53.9749 13.9053C53.5312 14.4342 53.2779 14.9154 53.2779 15.6472H52.8118C52.8118 14.9139 52.557 14.4342 52.1148 13.9053L48.9671 10.1433H45.9064L51.1795 16.4605L45.7401 23.3989H48.7723L52.1163 19.0172C52.506 18.5068 52.8133 18.1271 52.8133 17.446H53.2794H53.2764ZM37.8305 23.6264C33.2544 23.6264 30.2776 20.9252 30.2776 16.7711C30.2776 12.617 33.2514 9.9342 37.8305 9.9342C41.9988 9.9342 44.8422 11.9651 45.3848 15.3889H43.0526C42.5954 13.3334 40.6304 12.0943 37.8305 12.0943C34.6633 12.0943 32.5709 13.9453 32.5709 16.7726C32.5709 19.5999 34.6648 21.4694 37.8305 21.4694C40.6259 21.4694 42.5969 20.2056 43.0526 18.1547H45.3848C44.8467 21.6278 42.0723 23.6279 37.8305 23.6279V23.6264Z" fill="#2D2555"/>
<path d="M25.8287 24.5628L16.69 29.9744C16.1054 30.3204 15.3845 30.3204 14.7984 29.9744L4.91479 24.12C4.33022 23.7741 3.96899 23.133 3.96899 22.4396V10.7353C3.96899 10.0419 4.32873 9.40235 4.91479 9.05489L14.7924 3.20658C15.377 2.86066 16.0979 2.86066 16.684 3.20658L25.8332 8.62442L19.1032 12.6094L10.699 7.63279V25.5559L19.1017 20.5793L25.8287 24.5628Z" fill="#7E6ED4"/>
<path d="M19.1023 20.0423C20.9607 20.0423 22.4673 18.497 22.4673 16.5908C22.4673 14.6846 20.9607 13.1393 19.1023 13.1393C17.2439 13.1393 15.7373 14.6846 15.7373 16.5908C15.7373 18.497 17.2439 20.0423 19.1023 20.0423Z" fill="#7E6ED4"/>
</svg>
