<svg width="80" height="81" viewBox="0 0 80 81" fill="none" xmlns="http://www.w3.org/2000/svg">
<g clip-path="url(#clip0_1436_2170)">
<path d="M80 0.5H0V80.5H80V0.5Z" fill="url(#paint0_linear_1436_2170)"/>
<path d="M58.9821 53.9999L43.1094 63.1645C42.0934 63.7512 40.8408 63.7512 39.8248 63.1645L22.6554 53.2512C21.6394 52.6645 21.0134 51.5799 21.0134 50.4065V30.5845C21.0134 29.4112 21.6394 28.3265 22.6554 27.7399L39.8128 17.8345C40.8288 17.2479 42.0808 17.2479 43.0974 17.8345L58.9881 27.0092L47.2981 33.7579L32.7021 25.3305V55.6812L47.2981 47.2539L58.9821 53.9992V53.9999Z" fill="#F2F2F2"/>
<path d="M47.2974 46.3442C50.5249 46.3442 53.1414 43.7278 53.1414 40.5002C53.1414 37.2727 50.5249 34.6562 47.2974 34.6562C44.0698 34.6562 41.4534 37.2727 41.4534 40.5002C41.4534 43.7278 44.0698 46.3442 47.2974 46.3442Z" fill="#F2F2F2"/>
</g>
<defs>
<linearGradient id="paint0_linear_1436_2170" x1="39.868" y1="4.48867" x2="40.1827" y2="90.3553" gradientUnits="userSpaceOnUse">
<stop stop-color="#6554BE"/>
<stop offset="0.87" stop-color="#C8C1EF"/>
</linearGradient>
<clipPath id="clip0_1436_2170">
<rect y="0.5" width="80" height="80" rx="40" fill="white"/>
</clipPath>
</defs>
</svg>
